<?xml version="1.0" encoding="utf-8"?>
<!-- Generator: Adobe Illustrator 24.0.1, SVG Export Plug-In . SVG Version: 6.00 Build 0)  -->
<svg version="1.1" id="Capa_1" xmlns="http://www.w3.org/2000/svg" xmlns:xlink="http://www.w3.org/1999/xlink" x="0px" y="0px"
	 viewBox="0 0 512 512" style="enable-background:new 0 0 512 512;" xml:space="preserve">
<style type="text/css">
	.st0{display:none;}
	.st1{display:inline;}
</style>
<g>
	<g>
		<path d="M256,0C114.8,0,0,114.8,0,256s114.8,256,256,256s256-114.9,256-256S397.2,0,256,0z M256,472.3
			c-119.3,0-216.3-97-216.3-216.3S136.7,39.7,256,39.7s216.3,97,216.3,216.3S375.3,472.3,256,472.3z"/>
	</g>
</g>
<g class="st0">
	<g class="st1">
		<path d="M355.1,234.4h-79.3v-79.3c0-10.9-8.9-19.8-19.8-19.8s-19.8,8.9-19.8,19.8v79.3h-79.3c-11,0-19.8,8.9-19.8,19.8
			s8.9,19.8,19.8,19.8h79.3v79.3c0,10.9,8.9,19.8,19.8,19.8c11,0,19.8-8.9,19.8-19.8V274h79.3c11,0,19.8-8.9,19.8-19.8
			S366.1,234.4,355.1,234.4z"/>
	</g>
</g>
<g>
	<g>
		<path d="M256,115.2c-76.1,0-137.9,60.3-140.5,135.8l-16.8-16.8c-5-5-13.1-5-18.1,0c-5,5-5,13.1,0,18.1l38.4,38.4
			c5,5,13.1,5,18.1,0l38.4-38.4c5-5,5-13.1,0-18.1c-2.5-2.5-5.8-3.8-9.1-3.8s-6.6,1.2-9.1,3.7l-16,16
			c3.1-60.7,53.1-109.3,114.6-109.3c44.2,0,82.1,25.3,101.5,61.8l19.1-19.1C351.9,142.6,307.2,115.2,256,115.2z"/>
	</g>
</g>
<g>
	<g>
		<path d="M431.5,259.7l-38.4-38.4c-5-5-13.1-5-18.1,0l-38.4,38.4c-5,5-5,13.1,0,18.1c5,5,13.1,5,18.1,0l16-16
			c-3.1,60.7-53.1,109.3-114.6,109.3c-44.2,0-82.1-25.3-101.5-61.8l-19.1,19.1c24.6,40.9,69.3,68.3,120.6,68.3
			c76.1,0,137.9-60.3,140.5-135.8l16.8,16.8c2.5,2.5,5.8,3.8,9.1,3.8s6.6-1.2,9.1-3.7C436.4,272.9,436.4,264.7,431.5,259.7z"/>
	</g>
</g>
</svg>
